<?xml version="1.0" encoding="UTF-8" standalone="no"?>
<svg
   xmlns:dc="http://purl.org/dc/elements/1.1/"
   xmlns:cc="http://creativecommons.org/ns#"
   xmlns:rdf="http://www.w3.org/1999/02/22-rdf-syntax-ns#"
   xmlns:svg="http://www.w3.org/2000/svg"
   xmlns="http://www.w3.org/2000/svg"
   xmlns:sodipodi="http://sodipodi.sourceforge.net/DTD/sodipodi-0.dtd"
   xmlns:inkscape="http://www.inkscape.org/namespaces/inkscape"
   width="587.27332"
   height="212.18388"
   viewBox="0 0 155.38274 56.140318"
   version="1.1"
   id="svg8"
   inkscape:version="1.0.1 (3bc2e813f5, 2020-09-07)"
   sodipodi:docname="drawing.svg"
   shape-rendering="crispEdges">
  <defs
     id="defs2" />
  <sodipodi:namedview
     inkscape:object-paths="true"
     inkscape:snap-midpoints="true"
     inkscape:snap-text-baseline="true"
     inkscape:snap-center="true"
     inkscape:snap-object-midpoints="true"
     inkscape:snap-page="true"
     id="base"
     pagecolor="#bfbfbf"
     bordercolor="#666666"
     borderopacity="1.0"
     inkscape:pageopacity="0"
     inkscape:pageshadow="2"
     inkscape:zoom="1.4"
     inkscape:cx="244.77391"
     inkscape:cy="81.383556"
     inkscape:document-units="px"
     inkscape:current-layer="layer1"
     showgrid="false"
     inkscape:pagecheckerboard="true"
     inkscape:window-width="2560"
     inkscape:window-height="1417"
     inkscape:window-x="-8"
     inkscape:window-y="-8"
     inkscape:window-maximized="1"
     inkscape:document-rotation="0"
     units="px"
     borderlayer="true"
     inkscape:showpageshadow="false" />
  <metadata
     id="metadata5">
    <rdf:RDF>
      <cc:Work
         rdf:about="">
        <dc:format>image/svg+xml</dc:format>
        <dc:type
           rdf:resource="http://purl.org/dc/dcmitype/StillImage" />
        <dc:title></dc:title>
      </cc:Work>
    </rdf:RDF>
  </metadata>
  <g
     inkscape:label="Layer 1"
     inkscape:groupmode="layer"
     id="layer1"
     transform="translate(-77.420709,-101.59229)">
    <path
       id="path868"
       style="fill:#dd8d33;stroke-width:1"
       d="m 101.62109,102.29102 c -7.888342,0.35394 -15.793079,0.61787 -23.660152,1.13671 0.05066,5.65135 0.39026,11.29743 0.593568,16.94518 0.44886,10.08134 0.797294,20.18755 1.305996,30.25228 0.04175,0.73513 0.09773,1.46973 0.164889,2.20293 4.368348,-0.0115 8.727715,-0.37855 13.093321,-0.51483 1.494296,-0.0611 2.988467,-0.12541 4.48285,-0.18438 0,1.05989 10e-7,2.11979 0,3.17968 8.289218,0.21665 16.580608,0.37565 24.873048,0.33789 0.0711,-0.80492 -0.0676,-1.89609 0.7207,-2.37695 1.55745,-0.46477 3.22508,-0.37154 4.83072,-0.55257 1.65721,-0.12112 3.31473,-0.23763 4.97202,-0.35758 0.0577,1.05973 0.11013,2.11975 0.16406,3.17968 10.40465,0.53971 20.80394,1.2016 31.21211,1.66133 0.36578,-0.0154 1.04228,0.0902 0.94805,-0.49336 -0.0875,-0.62235 0.16521,-1.3645 0.88066,-1.42475 2.60607,-0.31791 5.24743,-0.28161 7.86789,-0.44811 5.11976,-0.25177 10.24478,-0.39341 15.34129,-0.78144 0.0647,-0.56076 -0.13043,-1.36437 0.0998,-1.7704 3.62404,-0.25337 7.25039,-0.47214 10.87679,-0.68858 -0.0707,1.01234 -0.25193,1.95077 -0.20898,2.93945 8.00952,0.73824 16.03976,1.23566 24.05975,1.84776 1.55457,0.0993 3.08881,0.21749 4.6629,0.20107 0.62059,-6.04135 0.88124,-12.11368 1.32965,-18.16947 0.66067,-10.02716 1.38162,-20.10403 2.0102,-30.10006 1e-4,-0.52842 0.26346,-1.33113 -0.56891,-1.12251 -9.37422,-0.70254 -18.74961,-1.38974 -28.1264,-2.05718 -0.29217,1.26085 -0.31148,2.56521 -0.45899,3.84766 -5.32081,0.24431 -10.64166,0.48776 -15.96289,0.72265 -0.12591,-1.71897 -0.25661,-3.43759 -0.38672,-5.15624 -8.89301,0.50733 -17.79921,0.8034 -26.69531,1.27539 -1.20395,0.0935 -2.43694,-0.004 -3.625,0.16601 -0.11192,0.93997 -1.17718,1.01979 -1.92264,0.96806 -6.41258,-0.17511 -12.81061,-0.6908 -19.22189,-0.90165 -0.0502,0.88548 -0.10492,1.77071 -0.1543,2.65625 -4.03028,0.44578 -8.09478,0.48897 -12.11719,1.01172 0,-1.16797 0,-2.33594 0,-3.50391 -5.75827,-0.38758 -11.58611,-0.29982 -17.38281,-0.31445 -0.12307,-1.25398 -0.24552,-2.508 -0.37109,-3.76172 -1.20899,0.0495 -2.41797,0.099 -3.62696,0.14844 z" />
    <path
       style="fill:#231f1d;stroke-width:1"
       d="m 160.83716,157.47867 c -1.81901,-0.11448 -8.18885,-0.45913 -14.15521,-0.7659 -5.96635,-0.30676 -11.60715,-0.6238 -12.53509,-0.70454 l -1.68718,-0.14678 0.16627,-1.41467 c 0.0914,-0.77807 0.0768,-1.46303 -0.0326,-1.52213 -0.10938,-0.0591 -2.16341,0.0447 -4.5645,0.23063 -2.4011,0.18593 -4.51446,0.3462 -4.69636,0.35614 -0.21951,0.012 -0.33073,0.47707 -0.33073,1.38292 v 1.36484 l -5.20192,-0.17422 c -2.86106,-0.0958 -8.63559,-0.17422 -12.83229,-0.17422 h -7.630372 v -1.57188 c 0,-0.86454 -0.0893,-1.61513 -0.198437,-1.66799 -0.188085,-0.0911 -2.948439,0.006 -13.083919,0.45938 l -4.418814,0.19774 -0.131758,-0.62685 c -0.07247,-0.34477 -0.26071,-4.1392 -0.418317,-8.43206 -0.157607,-4.29287 -0.397703,-10.36505 -0.533547,-13.49375 -0.826348,-19.03208 -1.123857,-27.53997 -0.968468,-27.69535 0.09711,-0.0971 4.849217,-0.38394 10.560228,-0.63738 5.711011,-0.25344 12.020764,-0.53907 14.021674,-0.63472 l 3.63802,-0.17392 v 1.83147 1.83147 l 2.18282,0.16992 c 1.20054,0.0934 5.12961,0.17063 8.73125,0.1715 l 6.54844,0.002 v 1.71979 c 0,2.02504 -0.68317,1.85584 5.81565,1.44036 5.87503,-0.37561 5.50919,-0.2579 5.71907,-1.84008 l 0.17511,-1.32007 1.22269,0.002 c 0.67247,8.7e-4 4.25878,0.17218 7.96956,0.38068 10.92061,0.6136 11.78672,0.62119 11.70121,0.10251 -0.0939,-0.56976 0.5905,-0.63171 12.77275,-1.15606 5.23875,-0.22549 11.48953,-0.51236 13.89062,-0.6375 2.4011,-0.12513 4.45493,-0.17248 4.56407,-0.10521 0.10914,0.0673 0.19843,1.1798 0.19843,2.47231 0,1.29252 0.0893,2.40472 0.19844,2.47158 0.2667,0.16337 14.85543,-0.57134 15.16688,-0.76383 0.13481,-0.0833 0.2451,-0.91132 0.2451,-1.84003 0,-0.92871 0.0893,-1.74081 0.19844,-1.80467 0.10914,-0.0639 1.44859,-0.0165 2.97656,0.10533 5.36108,0.42733 17.37479,1.3098 21.82813,1.6034 2.47385,0.16309 4.58356,0.37276 4.68824,0.46593 0.10467,0.0932 0.0152,2.72695 -0.19873,5.85283 -0.21397,3.12589 -0.62835,9.31484 -0.92085,13.75322 -1.30436,19.79255 -2.05674,30.45857 -2.15551,30.55734 -0.0587,0.0587 -3.13914,-0.12362 -6.84538,-0.40519 -10.878,-0.82643 -17.1377,-1.28768 -20.03392,-1.47624 l -2.71198,-0.17655 v -1.44955 -1.44955 l -4.69635,0.19316 c -2.583,0.10624 -4.78566,0.2468 -4.8948,0.31236 -0.10914,0.0656 -0.19843,0.51078 -0.19843,0.98938 v 0.87018 l -3.50573,0.17575 c -1.92815,0.0967 -7.37526,0.3513 -12.10469,0.56588 -4.72943,0.21457 -8.62872,0.39171 -8.6651,0.39366 -0.0364,0.002 -0.0661,0.47979 -0.0661,1.06187 0,0.98737 -0.0488,1.05579 -0.7276,1.02033 -0.40019,-0.0209 -2.21589,-0.13167 -4.0349,-0.24615 z m 0.93785,-9.50543 c 0.293,-5.18902 0.4962,-5.12663 0.76078,0.23361 0.0746,1.51094 0.19836,2.80991 0.27506,2.88661 0.14763,0.14764 21.73681,-0.70811 22.30183,-0.88399 0.18271,-0.0569 0.33073,-0.52111 0.33073,-1.0373 0,-0.90227 0.0341,-0.93454 0.99219,-0.9401 0.5457,-0.003 4.445,-0.17968 8.6651,-0.39225 4.22011,-0.21258 8.05539,-0.38858 8.52286,-0.39112 l 0.84994,-0.005 -0.1606,1.71979 -0.16059,1.71979 0.89815,0.0157 c 0.49399,0.009 5.24394,0.34554 10.55545,0.74867 5.31151,0.40313 9.69812,0.7025 9.74803,0.66526 0.0499,-0.0372 0.25719,-2.54703 0.46063,-5.57732 0.20345,-3.03028 0.61433,-9.08149 0.91306,-13.44711 0.29874,-4.36563 0.75852,-11.09266 1.02173,-14.94896 0.26322,-3.8563 0.4406,-7.0829 0.39418,-7.17022 -0.0464,-0.0873 -1.24927,-0.24015 -2.67299,-0.33962 -1.42373,-0.0995 -5.73127,-0.41499 -9.57231,-0.70114 -3.84104,-0.28615 -7.4294,-0.52027 -7.97413,-0.52027 h -0.99043 l -0.21882,3.50573 c -0.19066,3.05449 -0.23702,3.29568 -0.36024,1.87384 -0.0778,-0.89754 -0.23301,-1.72335 -0.34496,-1.83514 -0.11194,-0.11178 -4.69585,1.4e-4 -10.18646,0.24873 -5.4906,0.24858 -10.54846,0.44932 -11.23969,0.44607 l -1.25677,-0.006 -0.004,-1.91823 c -0.002,-1.05502 -0.079,-2.19996 -0.17119,-2.54431 -0.1626,-0.60746 -0.22742,-0.62137 -2.1792,-0.4678 -1.10639,0.0871 -5.34537,0.29071 -9.41995,0.45257 -4.07459,0.16187 -8.24177,0.37238 -9.26042,0.46781 -1.7529,0.16421 -1.85208,0.20893 -1.85208,0.83496 0,0.7621 0.61782,0.74261 -8.59896,0.27125 -2.83766,-0.14513 -6.90782,-0.34319 -9.0448,-0.44016 l -3.88542,-0.17629 -0.0833,1.16307 -0.0833,1.16307 -6.61458,0.44428 c -3.63802,0.24436 -8.0731,0.53042 -9.85573,0.6357 l -3.24116,0.19141 v -1.89075 -1.89074 l -4.03489,-8.2e-4 c -2.2192,-4.5e-4 -6.08873,-0.0787 -8.59896,-0.17394 l -4.56407,-0.17312 -0.004,-1.34741 c -0.007,-2.24917 0.44663,-2.14067 -7.447629,-1.78239 -3.832459,0.17394 -8.188499,0.38898 -9.680087,0.47786 l -2.71198,0.16162 v 1.79436 c 0,0.9869 0.116414,4.45323 0.258697,7.70296 0.142282,3.24972 0.438047,10.3139 0.657255,15.69817 0.219208,5.38427 0.471055,11.23223 0.559661,12.99545 l 0.161102,3.20588 1.099872,-0.0976 c 1.447925,-0.1285 13.756772,-0.62559 15.490889,-0.62559 h 1.35169 v 1.7198 1.71979 l 8.06979,0.0441 c 4.43839,0.0243 8.27815,0.054 8.53282,0.0661 0.35992,0.0171 0.48113,-0.22833 0.54438,-1.10243 0.0447,-0.61846 0.10427,-1.13113 0.13229,-1.13926 0.41122,-0.11936 18.07949,-1.21628 18.1721,-1.1282 0.0712,0.0677 0.0901,0.88841 0.042,1.8237 -0.0735,1.42956 -0.0189,1.70053 0.34273,1.70053 0.35253,0 14.90014,0.79466 20.91697,1.14259 0.87312,0.0505 1.94469,0.082 2.38125,0.0699 l 0.79375,-0.0219 z m 50.45905,-1.83586 -0.59372,-0.49534 0.51546,-5.64742 c 0.67586,-7.40493 1.40463,-19.23549 1.2153,-19.72888 -0.12163,-0.31696 -0.67534,-0.37201 -2.99212,-0.29749 l -2.84286,0.0914 -0.0822,-0.71157 c -0.15356,-1.32982 0.58691,-1.69838 3.77494,-1.87892 2.13847,-0.1211 2.97482,-0.2733 3.34559,-0.60885 0.39073,-0.3536 0.80407,-0.41542 1.9718,-0.2949 0.81259,0.0839 1.64858,0.29453 1.85776,0.46813 0.27968,0.23211 1.36009,0.26516 4.08277,0.12488 2.03634,-0.10492 3.70244,-0.13752 3.70244,-0.0725 0,0.0651 -0.30104,0.4631 -0.66897,0.88454 -0.36794,0.42143 -0.78936,0.91506 -0.93648,1.09696 -0.18316,0.22646 -1.14008,0.33073 -3.03519,0.33073 -2.03559,0 -2.76877,0.0875 -2.77176,0.33073 -0.002,0.1819 -0.29883,4.91464 -0.6591,10.51719 -0.36027,5.60255 -0.6561,10.98097 -0.65739,11.95205 -0.002,1.63168 -0.0665,1.82972 -0.84818,2.61141 -0.79739,0.79738 -2.79685,1.85125 -3.47559,1.83191 -0.16984,-0.005 -0.57597,-0.23171 -0.90252,-0.50415 z M 91.516325,143.58867 c 0,-2.79272 -0.548023,-7.44374 -1.338312,-11.35813 -0.740848,-3.66951 -0.660312,-3.49756 -1.575245,-3.36327 -0.967303,0.14197 -1.000727,-0.18288 -0.1258,-1.22268 l 0.66481,-0.79008 -0.657327,-5.61683 c -0.36153,-3.08926 -0.719459,-5.67896 -0.795396,-5.7549 -0.07594,-0.0759 -0.626678,0.008 -1.223867,0.18724 -0.597189,0.17893 -1.15553,0.25558 -1.240758,0.17036 -0.248371,-0.24837 0.850843,-1.56979 1.619336,-1.94668 0.551574,-0.2705 0.703809,-0.53534 0.703809,-1.22437 0,-0.48357 0.148828,-1.00061 0.330729,-1.14899 0.370721,-0.30239 4.16709,-1.6471 4.6501,-1.6471 0.17585,0 0.310837,0.38274 0.310837,0.88134 0,1.00257 0.31805,1.22635 2.662714,1.8735 3.867311,1.0674 6.304395,4.64116 5.553295,8.1434 -0.56313,2.62579 -2.142693,4.56819 -4.816814,5.92327 l -1.343772,0.68094 0.171911,1.07507 c 0.620444,3.88005 1.476833,11.67659 1.476833,13.44505 0,1.73671 -0.09086,2.19955 -0.515096,2.62378 -0.785992,0.78599 -1.868855,1.25215 -3.255216,1.40133 l -1.256771,0.13524 z m 5.46966,-18.76851 c 0.477814,-0.19965 1.106072,-0.75323 1.396128,-1.23019 1.725077,-2.83667 0.27623,-6.65938 -3.173042,-8.3719 -1.061644,-0.5271 -1.188579,-0.54135 -1.273238,-0.14295 -0.09905,0.46614 0.391188,7.34918 0.662706,9.30444 0.148852,1.07191 0.202294,1.13398 0.838836,0.97422 0.373921,-0.0939 1.070795,-0.33398 1.54861,-0.53362 z m 56.614655,19.65192 c -0.12243,-0.46819 -0.22215,-0.52308 -0.48065,-0.26458 -0.17939,0.17939 -0.41682,0.32616 -0.52762,0.32616 -0.11079,0 -0.13261,-2.41101 -0.0485,-5.35781 l 0.15295,-5.35781 -0.79867,0.79375 c -0.43927,0.43656 -2.43525,2.57968 -4.4355,4.7625 -2.00025,2.18281 -4.02968,4.23664 -4.50983,4.56406 -1.0371,0.7072 -1.83774,0.76486 -2.07394,0.14936 -0.1223,-0.31871 0.26596,-0.86654 1.36076,-1.92003 1.78812,-1.72064 7.04582,-7.8027 9.02925,-10.44496 l 1.37425,-1.83073 -0.59935,-0.64178 c -0.32964,-0.35298 -2.34918,-2.25449 -4.48786,-4.22559 -2.13869,-1.9711 -3.95027,-3.74474 -4.02575,-3.94142 -0.14014,-0.3652 1.08036,-1.68496 1.55825,-1.68496 0.14518,0 1.9621,1.6951 4.0376,3.76689 l 3.77362,3.76689 0.0493,-1.1872 c 0.0271,-0.65296 0.0569,-2.20421 0.0662,-3.44721 0.0222,-2.97189 0.28076,-3.34586 3.17236,-4.58808 3.12077,-1.34067 3.37888,-1.19787 3.18941,1.76459 -0.14875,2.32592 -0.65636,18.5492 -0.65636,20.97757 0,1.36985 -0.0746,1.53859 -1.22375,2.7671 -0.75834,0.81073 -1.5885,1.40961 -2.18281,1.57469 -1.35864,0.37739 -1.53942,0.34347 -1.71329,-0.3214 z m 11.29907,0.0268 c -0.18651,-0.41799 -0.0229,-1.35957 0.63223,-3.63802 1.12087,-3.89837 3.47405,-13.07301 4.58876,-17.89074 0.81898,-3.53965 0.90383,-3.7471 1.91038,-4.67092 1.12425,-1.03186 2.52569,-1.50838 2.85744,-0.9716 0.14958,0.24203 0.29691,0.23292 0.62406,-0.0386 0.25507,-0.21169 0.52252,-0.25831 0.66134,-0.11528 0.1282,0.13208 0.48782,1.66889 0.79915,3.41514 0.31133,1.74625 1.02993,5.55625 1.59689,8.46667 0.56696,2.91041 1.28484,6.88708 1.5953,8.83704 0.64018,4.02098 0.53116,4.69329 -0.80434,4.96039 -0.43817,0.0876 -0.79668,0.23785 -0.79668,0.3338 0,0.096 -0.35166,0.3822 -0.78147,0.6361 l -0.78148,0.46163 -0.26541,-0.9999 c -0.14597,-0.54994 -0.50628,-2.34683 -0.80068,-3.99309 -0.29441,-1.64625 -0.60172,-3.10069 -0.68293,-3.23209 -0.20179,-0.3265 -4.41828,-5.3e-4 -4.79779,0.37095 -0.1675,0.16395 -0.74593,1.72683 -1.2854,3.47308 -0.84854,2.74675 -1.12123,3.30883 -2.02169,4.16719 -1.17551,1.12055 -1.87895,1.25458 -2.24768,0.42824 z m 9.59271,-10.44108 c 0.5539,-0.14867 0.5499,-0.1838 -0.49595,-4.36201 -0.57989,-2.31667 -1.12882,-4.21202 -1.21985,-4.21189 -0.13836,2e-4 -1.65021,7.92415 -1.62797,8.53257 0.008,0.23075 2.52234,0.26182 3.34377,0.0413 z m 12.37615,9.38878 c 0.30432,-1.04912 0.47791,-7.69099 0.23436,-8.96709 -0.21834,-1.14406 -0.26065,-1.18734 -1.08175,-1.10673 -0.76436,0.075 -0.89725,-0.0183 -1.25933,-0.88495 -0.36632,-0.87671 -0.36441,-1.03049 0.0201,-1.61729 0.23369,-0.35665 0.71624,-0.78121 1.07235,-0.94346 l 0.64746,-0.29501 v -5.61367 c 0,-4.46866 0.075,-5.67591 0.36763,-5.91878 0.42785,-0.35509 5.12466,-1.16377 5.63089,-0.96951 0.19664,0.0755 0.27052,0.31919 0.17343,0.5722 -0.191,0.49774 0.81189,1.41581 1.55719,1.42549 1.2515,0.0163 3.56771,1.21405 4.8744,2.52074 1.14064,1.14064 1.40728,1.58939 1.56355,2.63148 0.25667,1.71162 -0.21541,3.12239 -1.51753,4.53503 -1.0481,1.13706 -1.37783,1.37305 -4.01409,2.87294 l -1.28641,0.7319 1.44402,1.49283 c 4.11309,4.25212 7.23847,8.24387 6.98066,8.91572 -0.32912,0.85767 -1.1789,0.27556 -3.4022,-2.33056 -1.27205,-1.49109 -3.1421,-3.60404 -4.15566,-4.69545 l -1.84284,-1.98437 -0.0231,3.0427 c -0.0127,1.67349 -0.17132,3.75709 -0.35253,4.63021 -0.40126,1.93345 -0.93574,2.27527 -3.85007,2.4623 l -1.96407,0.12605 0.18353,-0.63272 z m 7.67515,-14.79857 c 1.55228,-0.47944 1.80688,-0.65579 2.27683,-1.57696 0.62525,-1.22559 0.66173,-1.88795 0.15737,-2.8573 -0.67814,-1.30338 -2.58356,-2.61296 -4.45691,-3.06321 -0.68094,-0.16366 -0.72765,-0.11941 -0.72832,0.69006 -8e-4,1.05249 0.527,6.55547 0.67307,7.0165 0.13197,0.41651 0.0141,0.42837 2.07796,-0.20909 z m -80.72388,12.53752 c -0.10389,-0.26858 -0.55101,-1.91708 -0.9936,-3.66333 l -0.80471,-3.175 -2.54762,-0.0753 -2.54764,-0.0753 -0.99607,2.79576 c -0.72437,2.03313 -1.20779,2.9739 -1.77224,3.44885 -1.05182,0.88505 -1.99351,1.09571 -2.52447,0.56475 -0.38546,-0.38545 -0.26015,-0.93542 1.46972,-6.45044 1.0401,-3.31599 2.2594,-7.45782 2.70956,-9.20407 1.35369,-5.25133 1.49194,-5.58463 2.58639,-6.23541 1.12834,-0.67093 2.56363,-0.94023 2.81795,-0.52873 0.12405,0.20071 0.33292,0.1988 0.71659,-0.007 0.29784,-0.1594 0.63163,-0.18948 0.74176,-0.0669 0.11013,0.12262 0.46702,1.41357 0.79309,2.86878 0.32608,1.45521 1.0002,4.19365 1.49807,6.08542 0.49786,1.89177 1.33912,5.37229 1.86947,7.73449 0.93689,4.17293 0.95056,4.31006 0.48125,4.82864 -0.26567,0.29356 -0.6959,0.53374 -0.95607,0.53374 -0.26017,0 -0.89592,0.24951 -1.41279,0.55447 -0.90163,0.53198 -0.94742,0.53466 -1.12864,0.0661 z m -2.26235,-9.02114 c -0.65583,-2.35599 -2.18137,-6.94531 -2.30869,-6.94531 -0.0885,0 -0.43126,1.39898 -0.7616,3.10885 -0.33034,1.70987 -0.66543,3.37675 -0.74464,3.70417 -0.13993,0.57841 -0.086,0.59531 1.8999,0.59531 1.8193,0 2.02975,-0.0509 1.91503,-0.46302 z m 11.636,7.42924 c -0.0714,-0.12064 -0.20746,-2.24341 -0.30227,-4.71726 -0.0948,-2.47385 -0.36646,-6.66953 -0.60367,-9.32372 -0.50262,-5.6237 -0.46506,-5.75333 1.72459,-5.95156 1.32358,-0.11983 1.89828,0.12835 1.90287,0.82174 0.003,0.38814 5.31957,8.08101 6.23435,9.02013 0.32903,0.33779 0.37668,0.28694 0.37189,-0.39687 -0.003,-0.43137 -0.17506,-2.45118 -0.38231,-4.48847 -0.33023,-3.24625 -0.32875,-3.77782 0.0119,-4.29998 0.51552,-0.79014 2.3888,-2.01416 2.82586,-1.84644 0.24372,0.0935 0.53187,1.88718 0.97194,6.05009 0.34403,3.25444 0.85395,7.04826 1.13316,8.4307 0.71304,3.53052 0.71745,3.46101 -0.26176,4.12808 -0.97387,0.66344 -2.89404,1.0812 -3.26491,0.71033 -0.13407,-0.13407 -0.31972,-1.22882 -0.41257,-2.43277 l -0.1688,-2.18902 -2.80321,-3.65399 c -1.54177,-2.00969 -3.06449,-3.9932 -3.38383,-4.40779 l -0.58061,-0.75379 -0.0147,1.19506 c -0.0227,1.84419 0.76983,10.86488 1.04315,11.87343 0.27467,1.01354 -0.004,1.77122 -0.72685,1.9757 -1.04133,0.2946 -3.19305,0.46106 -3.31425,0.2564 z"
       id="path866" />
  </g>
</svg>
